<svg xmlns="http://www.w3.org/2000/svg" width="40.85" height="56.481" viewBox="0 0 40.85 56.481">
  <g id="bag" transform="translate(-82.434 495.935)">
    <path id="Path_57" data-name="Path 57" d="M100.894-495.766a11.157,11.157,0,0,0-6.167,3.33,11.3,11.3,0,0,0-3.166,8.261v1.377l-1.436.059a6.271,6.271,0,0,0-2.248.365,6.307,6.307,0,0,0-3.813,4.142c-.177.624-.341,3.742-1.224,22.207-.565,11.874-.577,11.533.177,13.122a6.37,6.37,0,0,0,4.284,3.319c.435.094,5.178.129,15.593.129,16.488,0,15.746.024,17.194-.741a6.4,6.4,0,0,0,2.589-2.683c.777-1.565.765-1.224.2-13.145-.883-18.465-1.047-21.583-1.224-22.207a5.962,5.962,0,0,0-1.471-2.554,5.735,5.735,0,0,0-4.566-1.942l-1.424-.071-.071-1.836a10.708,10.708,0,0,0-1.906-6.308A11.4,11.4,0,0,0,100.894-495.766ZM104.448-492a7.641,7.641,0,0,1,5.1,3.942,7.9,7.9,0,0,1,.847,3.966v1.33H95.328v-1.33a8.116,8.116,0,0,1,.836-3.966A7.537,7.537,0,0,1,104.448-492ZM116.7-478.772a2.434,2.434,0,0,1,1.33,1.706c.071.33.447,7.6.859,16.158.612,13.016.706,15.628.577,16.04a2.624,2.624,0,0,1-1.506,1.518c-.624.177-29.574.177-30.2,0a2.624,2.624,0,0,1-1.506-1.518c-.129-.412-.035-3,.577-16.052.412-8.544.788-15.817.859-16.146a2.434,2.434,0,0,1,1.33-1.706c.459-.212,1.094-.224,13.84-.224S116.24-478.984,116.7-478.772Z" fill="#333"/>
  </g>
</svg>
