<svg xmlns="http://www.w3.org/2000/svg" width="574" height="151" viewBox="0 0 574 151">
  <g id="Group_9" data-name="Group 9" transform="translate(-770.104 -298.643)">
    <text id="F_dly" data-name="F       dly" transform="translate(770.104 422.643)" fill="#222" font-size="141" font-family="Blackpast-Regular, Blackpast"><tspan x="0" y="0" xml:space="preserve">F       DLY</tspan></text>
    <g id="infinity-_2_" transform="translate(850.861 319.726)">
      <path id="Path_56" data-name="Path 56" d="M49.154-393.626a58.507,58.507,0,0,0-18.691,5.149C15.255-381.252,4.677-367.242,1.322-349.76a76.029,76.029,0,0,0,0,21.953C5.7-305.1,21.882-288.851,44.4-284.62a58.4,58.4,0,0,0,10.493.679c6.032,0,7.307-.12,11.47-1.118,11.342-2.674,21.325-8.781,30.968-18.879l1.232-1.277-2.336-3.712c-1.317-2.036-3.356-5.468-4.588-7.584l-2.209-3.912-1.912,2.515c-2.8,3.552-10.025,10.178-13.551,12.333-7.986,4.909-16.355,6.785-24.681,5.508C33.394-302.462,21.967-313.2,18.314-329.2a42.539,42.539,0,0,1-.765-9.579c0-8.781,1.614-15.088,5.565-21.713a36.386,36.386,0,0,1,37.213-16.844c7.434,1.357,13.934,4.949,20.9,11.575,8.624,8.142,14.741,17.522,20.815,31.971,9.643,22.871,25.446,40.114,42.735,46.62,6.627,2.515,10.748,3.233,18.436,3.233a58.4,58.4,0,0,0,10.493-.679c22.515-4.231,38.7-20.476,43.075-43.187a76.029,76.029,0,0,0,0-21.953c-3.356-17.482-13.934-31.492-29.142-38.717-14.868-7.025-33.177-7.065-46.728-.12-7.816,4.031-12.617,7.664-19.923,15.167l-1.444,1.477,2.974,4.71c1.657,2.594,3.7,6.027,4.545,7.624l1.572,2.914,1.912-2.475a78.55,78.55,0,0,1,12.064-11.575c8.114-5.708,17.332-8.1,26.21-6.745,15.888,2.395,27.315,13.132,30.968,29.137,1.1,4.71,1.1,14.449,0,19.159-1.912,8.422-6.287,15.926-12.107,20.835-10.45,8.741-25.318,11.1-37.553,5.947-13.169-5.548-24.554-19.039-33.22-39.355-6.33-14.848-14.061-26.383-23.789-35.524C83.861-386,74.855-390.832,63.6-393.067A91.637,91.637,0,0,0,49.154-393.626Z" transform="translate(-0.525 393.775)" fill="#e67e22"/>
    </g>
  </g>
</svg>
